<mxfile host="65bd71144e">
    <diagram id="wsVqbcCHLeHhs9foUmuS" name="Page-1">
        <mxGraphModel dx="1827" dy="448" grid="1" gridSize="10" guides="1" tooltips="1" connect="1" arrows="1" fold="1" page="1" pageScale="1" pageWidth="827" pageHeight="1169" math="0" shadow="0">
            <root>
                <mxCell id="0"/>
                <mxCell id="1" parent="0"/>
                <mxCell id="2" value="" style="rounded=0;whiteSpace=wrap;html=1;" vertex="1" parent="1">
                    <mxGeometry x="40" y="40" width="320" height="260" as="geometry"/>
                </mxCell>
                <mxCell id="3" value="" style="rounded=0;whiteSpace=wrap;html=1;" vertex="1" parent="1">
                    <mxGeometry x="110" y="60" width="160" height="50" as="geometry"/>
                </mxCell>
                <mxCell id="4" value="&lt;font style=&quot;font-size: 18px&quot;&gt;Task Tracker&lt;/font&gt;" style="text;html=1;strokeColor=none;fillColor=none;align=center;verticalAlign=middle;whiteSpace=wrap;rounded=0;" vertex="1" parent="1">
                    <mxGeometry x="110" y="70" width="150" height="35" as="geometry"/>
                </mxCell>
                <mxCell id="5" value="" style="rounded=0;whiteSpace=wrap;html=1;fontSize=18;" vertex="1" parent="1">
                    <mxGeometry x="40" y="120" width="320" height="60" as="geometry"/>
                </mxCell>
                <mxCell id="7" value="" style="rounded=1;whiteSpace=wrap;html=1;fontSize=18;" vertex="1" parent="1">
                    <mxGeometry x="220" y="130" width="120" height="30" as="geometry"/>
                </mxCell>
                <mxCell id="8" value="&lt;font style=&quot;font-size: 14px&quot;&gt;View Tasks&lt;/font&gt;" style="text;html=1;strokeColor=none;fillColor=none;align=center;verticalAlign=middle;whiteSpace=wrap;rounded=0;fontSize=18;" vertex="1" parent="1">
                    <mxGeometry x="240" y="130" width="74" height="30" as="geometry"/>
                </mxCell>
                <mxCell id="9" value="My current tasks" style="text;html=1;strokeColor=none;fillColor=none;align=center;verticalAlign=middle;whiteSpace=wrap;rounded=0;fontSize=14;" vertex="1" parent="1">
                    <mxGeometry x="40" y="135" width="170" height="30" as="geometry"/>
                </mxCell>
                <mxCell id="10" value="" style="rounded=0;whiteSpace=wrap;html=1;fontSize=18;" vertex="1" parent="1">
                    <mxGeometry x="40" y="180" width="320" height="60" as="geometry"/>
                </mxCell>
                <mxCell id="11" value="Create new task" style="text;html=1;strokeColor=none;fillColor=none;align=center;verticalAlign=middle;whiteSpace=wrap;rounded=0;fontSize=14;" vertex="1" parent="1">
                    <mxGeometry x="50" y="195" width="170" height="30" as="geometry"/>
                </mxCell>
                <mxCell id="13" value="&lt;font style=&quot;font-size: 14px&quot;&gt;Add Task&lt;/font&gt;" style="rounded=1;whiteSpace=wrap;html=1;fontSize=18;" vertex="1" parent="1">
                    <mxGeometry x="220" y="195" width="120" height="30" as="geometry"/>
                </mxCell>
                <mxCell id="14" value="" style="rounded=0;whiteSpace=wrap;html=1;fontSize=18;" vertex="1" parent="1">
                    <mxGeometry x="40" y="240" width="320" height="60" as="geometry"/>
                </mxCell>
                <mxCell id="15" value="Check for tasks on SoC" style="text;html=1;strokeColor=none;fillColor=none;align=center;verticalAlign=middle;whiteSpace=wrap;rounded=0;fontSize=14;" vertex="1" parent="1">
                    <mxGeometry x="50" y="255" width="170" height="30" as="geometry"/>
                </mxCell>
                <mxCell id="16" value="&lt;span style=&quot;font-size: 14px&quot;&gt;Get tasks&lt;/span&gt;" style="rounded=1;whiteSpace=wrap;html=1;fontSize=18;" vertex="1" parent="1">
                    <mxGeometry x="220" y="255" width="120" height="30" as="geometry"/>
                </mxCell>
                <mxCell id="18" value="" style="endArrow=classic;html=1;fontSize=14;exitX=0.938;exitY=0.333;exitDx=0;exitDy=0;exitPerimeter=0;entryX=-0.02;entryY=0.287;entryDx=0;entryDy=0;entryPerimeter=0;" edge="1" parent="1" source="5" target="29">
                    <mxGeometry width="50" height="50" relative="1" as="geometry">
                        <mxPoint x="400" y="140" as="sourcePoint"/>
                        <mxPoint x="480" y="140" as="targetPoint"/>
                    </mxGeometry>
                </mxCell>
                <mxCell id="19" value="" style="rounded=0;whiteSpace=wrap;html=1;fontSize=14;" vertex="1" parent="1">
                    <mxGeometry x="490" y="40" width="120" height="250" as="geometry"/>
                </mxCell>
                <mxCell id="20" value="" style="rounded=0;whiteSpace=wrap;html=1;fontSize=14;" vertex="1" parent="1">
                    <mxGeometry x="490" y="40" width="160" height="250" as="geometry"/>
                </mxCell>
                <mxCell id="21" value="&lt;span style=&quot;font-size: 18px&quot;&gt;In progress&lt;/span&gt;" style="text;html=1;strokeColor=none;fillColor=none;align=center;verticalAlign=middle;whiteSpace=wrap;rounded=0;fontSize=14;" vertex="1" parent="1">
                    <mxGeometry x="500" y="40" width="140" height="50" as="geometry"/>
                </mxCell>
                <mxCell id="27" value="List" style="swimlane;fontStyle=0;childLayout=stackLayout;horizontal=1;startSize=30;horizontalStack=0;resizeParent=1;resizeParentMax=0;resizeLast=0;collapsible=1;marginBottom=0;fontSize=18;" vertex="1" parent="1">
                    <mxGeometry x="490" y="75" width="160" height="120" as="geometry"/>
                </mxCell>
                <mxCell id="28" value="Item 1" style="text;strokeColor=none;fillColor=none;align=left;verticalAlign=middle;spacingLeft=4;spacingRight=4;overflow=hidden;points=[[0,0.5],[1,0.5]];portConstraint=eastwest;rotatable=0;fontSize=18;" vertex="1" parent="27">
                    <mxGeometry y="30" width="160" height="30" as="geometry"/>
                </mxCell>
                <mxCell id="29" value="Item 2" style="text;strokeColor=none;fillColor=none;align=left;verticalAlign=middle;spacingLeft=4;spacingRight=4;overflow=hidden;points=[[0,0.5],[1,0.5]];portConstraint=eastwest;rotatable=0;fontSize=18;" vertex="1" parent="27">
                    <mxGeometry y="60" width="160" height="30" as="geometry"/>
                </mxCell>
                <mxCell id="30" value="Item 3" style="text;strokeColor=none;fillColor=none;align=left;verticalAlign=middle;spacingLeft=4;spacingRight=4;overflow=hidden;points=[[0,0.5],[1,0.5]];portConstraint=eastwest;rotatable=0;fontSize=18;" vertex="1" parent="27">
                    <mxGeometry y="90" width="160" height="30" as="geometry"/>
                </mxCell>
                <mxCell id="36" value="" style="endArrow=classic;html=1;fontSize=18;entryX=-0.015;entryY=0.054;entryDx=0;entryDy=0;entryPerimeter=0;" edge="1" parent="1" target="37">
                    <mxGeometry width="50" height="50" relative="1" as="geometry">
                        <mxPoint x="340" y="210" as="sourcePoint"/>
                        <mxPoint x="460" y="380" as="targetPoint"/>
                    </mxGeometry>
                </mxCell>
                <mxCell id="37" value="" style="rounded=0;whiteSpace=wrap;html=1;fontSize=14;" vertex="1" parent="1">
                    <mxGeometry x="480" y="350" width="240" height="250" as="geometry"/>
                </mxCell>
                <mxCell id="38" value="New Task" style="text;html=1;strokeColor=none;fillColor=none;align=center;verticalAlign=middle;whiteSpace=wrap;rounded=0;fontSize=18;" vertex="1" parent="1">
                    <mxGeometry x="500" y="350" width="190" height="30" as="geometry"/>
                </mxCell>
                <mxCell id="39" value="" style="rounded=0;whiteSpace=wrap;html=1;fontSize=18;" vertex="1" parent="1">
                    <mxGeometry x="480" y="380" width="240" height="30" as="geometry"/>
                </mxCell>
                <mxCell id="40" value="&lt;font style=&quot;font-size: 14px&quot;&gt;Title&lt;/font&gt;" style="text;html=1;strokeColor=none;fillColor=none;align=center;verticalAlign=middle;whiteSpace=wrap;rounded=0;fontSize=18;" vertex="1" parent="1">
                    <mxGeometry x="480" y="380" width="60" height="30" as="geometry"/>
                </mxCell>
                <mxCell id="41" value="" style="rounded=0;whiteSpace=wrap;html=1;fontSize=18;" vertex="1" parent="1">
                    <mxGeometry x="480" y="410" width="240" height="30" as="geometry"/>
                </mxCell>
                <mxCell id="42" value="&lt;font style=&quot;font-size: 14px&quot;&gt;Date&lt;/font&gt;" style="text;html=1;strokeColor=none;fillColor=none;align=center;verticalAlign=middle;whiteSpace=wrap;rounded=0;fontSize=18;" vertex="1" parent="1">
                    <mxGeometry x="480" y="410" width="60" height="30" as="geometry"/>
                </mxCell>
                <mxCell id="43" value="" style="rounded=0;whiteSpace=wrap;html=1;fontSize=18;" vertex="1" parent="1">
                    <mxGeometry x="480" y="440" width="240" height="30" as="geometry"/>
                </mxCell>
                <mxCell id="44" value="&lt;font style=&quot;font-size: 14px&quot;&gt;Comments&lt;/font&gt;" style="text;html=1;strokeColor=none;fillColor=none;align=center;verticalAlign=middle;whiteSpace=wrap;rounded=0;fontSize=18;" vertex="1" parent="1">
                    <mxGeometry x="490" y="440" width="60" height="30" as="geometry"/>
                </mxCell>
                <mxCell id="45" value="" style="rounded=0;whiteSpace=wrap;html=1;fontSize=18;" vertex="1" parent="1">
                    <mxGeometry x="480" y="470" width="240" height="30" as="geometry"/>
                </mxCell>
                <mxCell id="46" value="&lt;font style=&quot;font-size: 14px&quot;&gt;Completed&lt;/font&gt;" style="text;html=1;strokeColor=none;fillColor=none;align=center;verticalAlign=middle;whiteSpace=wrap;rounded=0;fontSize=18;" vertex="1" parent="1">
                    <mxGeometry x="490" y="470" width="60" height="30" as="geometry"/>
                </mxCell>
                <mxCell id="47" value="" style="rounded=0;whiteSpace=wrap;html=1;fontSize=18;" vertex="1" parent="1">
                    <mxGeometry x="480" y="500" width="240" height="30" as="geometry"/>
                </mxCell>
                <mxCell id="48" value="&lt;font style=&quot;font-size: 14px&quot;&gt;Link to repo&lt;/font&gt;" style="text;html=1;strokeColor=none;fillColor=none;align=center;verticalAlign=middle;whiteSpace=wrap;rounded=0;fontSize=18;" vertex="1" parent="1">
                    <mxGeometry x="480" y="500" width="100" height="30" as="geometry"/>
                </mxCell>
                <mxCell id="49" value="" style="rounded=0;whiteSpace=wrap;html=1;fontSize=14;" vertex="1" parent="1">
                    <mxGeometry x="640" y="475" width="24" height="20" as="geometry"/>
                </mxCell>
                <mxCell id="54" value="" style="rounded=0;whiteSpace=wrap;html=1;fontSize=14;" vertex="1" parent="1">
                    <mxGeometry x="100" y="360" width="240" height="250" as="geometry"/>
                </mxCell>
                <mxCell id="55" value="Task" style="text;html=1;strokeColor=none;fillColor=none;align=center;verticalAlign=middle;whiteSpace=wrap;rounded=0;fontSize=18;" vertex="1" parent="1">
                    <mxGeometry x="120" y="360" width="190" height="30" as="geometry"/>
                </mxCell>
                <mxCell id="56" value="" style="rounded=0;whiteSpace=wrap;html=1;fontSize=18;" vertex="1" parent="1">
                    <mxGeometry x="100" y="390" width="240" height="30" as="geometry"/>
                </mxCell>
                <mxCell id="57" value="&lt;font style=&quot;font-size: 14px&quot;&gt;Title&lt;/font&gt;" style="text;html=1;strokeColor=none;fillColor=none;align=center;verticalAlign=middle;whiteSpace=wrap;rounded=0;fontSize=18;" vertex="1" parent="1">
                    <mxGeometry x="100" y="390" width="60" height="30" as="geometry"/>
                </mxCell>
                <mxCell id="58" value="" style="rounded=0;whiteSpace=wrap;html=1;fontSize=18;" vertex="1" parent="1">
                    <mxGeometry x="100" y="420" width="240" height="30" as="geometry"/>
                </mxCell>
                <mxCell id="59" value="&lt;font style=&quot;font-size: 14px&quot;&gt;Date&lt;/font&gt;" style="text;html=1;strokeColor=none;fillColor=none;align=center;verticalAlign=middle;whiteSpace=wrap;rounded=0;fontSize=18;" vertex="1" parent="1">
                    <mxGeometry x="100" y="420" width="60" height="30" as="geometry"/>
                </mxCell>
                <mxCell id="60" value="" style="rounded=0;whiteSpace=wrap;html=1;fontSize=18;" vertex="1" parent="1">
                    <mxGeometry x="100" y="450" width="240" height="30" as="geometry"/>
                </mxCell>
                <mxCell id="61" value="&lt;font style=&quot;font-size: 14px&quot;&gt;Comments&lt;/font&gt;" style="text;html=1;strokeColor=none;fillColor=none;align=center;verticalAlign=middle;whiteSpace=wrap;rounded=0;fontSize=18;" vertex="1" parent="1">
                    <mxGeometry x="110" y="450" width="60" height="30" as="geometry"/>
                </mxCell>
                <mxCell id="62" value="" style="rounded=0;whiteSpace=wrap;html=1;fontSize=18;" vertex="1" parent="1">
                    <mxGeometry x="100" y="480" width="240" height="30" as="geometry"/>
                </mxCell>
                <mxCell id="63" value="&lt;font style=&quot;font-size: 14px&quot;&gt;Completed&lt;/font&gt;" style="text;html=1;strokeColor=none;fillColor=none;align=center;verticalAlign=middle;whiteSpace=wrap;rounded=0;fontSize=18;" vertex="1" parent="1">
                    <mxGeometry x="110" y="480" width="60" height="30" as="geometry"/>
                </mxCell>
                <mxCell id="64" value="" style="rounded=0;whiteSpace=wrap;html=1;fontSize=18;" vertex="1" parent="1">
                    <mxGeometry x="100" y="510" width="240" height="30" as="geometry"/>
                </mxCell>
                <mxCell id="65" value="&lt;font style=&quot;font-size: 14px&quot;&gt;Link to repo&lt;/font&gt;" style="text;html=1;strokeColor=none;fillColor=none;align=center;verticalAlign=middle;whiteSpace=wrap;rounded=0;fontSize=18;" vertex="1" parent="1">
                    <mxGeometry x="100" y="510" width="100" height="30" as="geometry"/>
                </mxCell>
                <mxCell id="66" value="" style="rounded=0;whiteSpace=wrap;html=1;fontSize=14;" vertex="1" parent="1">
                    <mxGeometry x="260" y="485" width="24" height="20" as="geometry"/>
                </mxCell>
                <mxCell id="69" value="&lt;font style=&quot;font-size: 14px&quot;&gt;Add Task&lt;/font&gt;" style="rounded=1;whiteSpace=wrap;html=1;fontSize=18;" vertex="1" parent="1">
                    <mxGeometry x="490" y="230" width="160" height="30" as="geometry"/>
                </mxCell>
                <mxCell id="70" value="" style="endArrow=classic;startArrow=classic;html=1;fontSize=14;exitX=1.005;exitY=0.082;exitDx=0;exitDy=0;exitPerimeter=0;entryX=0.001;entryY=0.167;entryDx=0;entryDy=0;entryPerimeter=0;" edge="1" parent="1" source="54" target="30">
                    <mxGeometry width="50" height="50" relative="1" as="geometry">
                        <mxPoint x="364" y="360" as="sourcePoint"/>
                        <mxPoint x="414" y="310" as="targetPoint"/>
                    </mxGeometry>
                </mxCell>
                <mxCell id="71" value="" style="endArrow=classic;html=1;fontSize=14;entryX=0.368;entryY=0;entryDx=0;entryDy=0;entryPerimeter=0;exitX=0.5;exitY=1;exitDx=0;exitDy=0;" edge="1" parent="1" source="69" target="38">
                    <mxGeometry width="50" height="50" relative="1" as="geometry">
                        <mxPoint x="510" y="350" as="sourcePoint"/>
                        <mxPoint x="560" y="300" as="targetPoint"/>
                    </mxGeometry>
                </mxCell>
                <mxCell id="72" value="" style="rounded=0;whiteSpace=wrap;html=1;fontSize=14;" vertex="1" parent="1">
                    <mxGeometry x="-70" y="640" width="240" height="250" as="geometry"/>
                </mxCell>
                <mxCell id="73" value="&lt;font style=&quot;font-size: 18px&quot;&gt;Tasks&lt;/font&gt;" style="text;html=1;strokeColor=none;fillColor=none;align=center;verticalAlign=middle;whiteSpace=wrap;rounded=0;fontSize=14;" vertex="1" parent="1">
                    <mxGeometry x="-60" y="650" width="210" height="30" as="geometry"/>
                </mxCell>
                <mxCell id="76" value="" style="rounded=1;whiteSpace=wrap;html=1;fontSize=18;" vertex="1" parent="1">
                    <mxGeometry x="490" y="197.5" width="160" height="25" as="geometry"/>
                </mxCell>
                <mxCell id="77" value="&lt;font style=&quot;font-size: 14px&quot;&gt;Show completed tasks&lt;/font&gt;" style="text;html=1;strokeColor=none;fillColor=none;align=center;verticalAlign=middle;whiteSpace=wrap;rounded=0;fontSize=18;" vertex="1" parent="1">
                    <mxGeometry x="500" y="195" width="150" height="25" as="geometry"/>
                </mxCell>
                <mxCell id="78" value="" style="endArrow=classic;html=1;fontSize=14;exitX=0.059;exitY=1.06;exitDx=0;exitDy=0;exitPerimeter=0;" edge="1" parent="1" source="14">
                    <mxGeometry width="50" height="50" relative="1" as="geometry">
                        <mxPoint x="10" y="400" as="sourcePoint"/>
                        <mxPoint x="40" y="630" as="targetPoint"/>
                    </mxGeometry>
                </mxCell>
                <mxCell id="79" value="List" style="swimlane;fontStyle=0;childLayout=stackLayout;horizontal=1;startSize=20;horizontalStack=0;resizeParent=1;resizeParentMax=0;resizeLast=0;collapsible=1;marginBottom=0;fontSize=14;" vertex="1" parent="1">
                    <mxGeometry x="-70" y="680" width="240" height="110" as="geometry"/>
                </mxCell>
                <mxCell id="80" value="Item 1" style="text;strokeColor=none;fillColor=none;align=left;verticalAlign=middle;spacingLeft=4;spacingRight=4;overflow=hidden;points=[[0,0.5],[1,0.5]];portConstraint=eastwest;rotatable=0;fontSize=14;" vertex="1" parent="79">
                    <mxGeometry y="20" width="240" height="30" as="geometry"/>
                </mxCell>
                <mxCell id="81" value="Item 2" style="text;strokeColor=none;fillColor=none;align=left;verticalAlign=middle;spacingLeft=4;spacingRight=4;overflow=hidden;points=[[0,0.5],[1,0.5]];portConstraint=eastwest;rotatable=0;fontSize=14;" vertex="1" parent="79">
                    <mxGeometry y="50" width="240" height="30" as="geometry"/>
                </mxCell>
                <mxCell id="82" value="Item 3" style="text;strokeColor=none;fillColor=none;align=left;verticalAlign=middle;spacingLeft=4;spacingRight=4;overflow=hidden;points=[[0,0.5],[1,0.5]];portConstraint=eastwest;rotatable=0;fontSize=14;" vertex="1" parent="79">
                    <mxGeometry y="80" width="240" height="30" as="geometry"/>
                </mxCell>
            </root>
        </mxGraphModel>
    </diagram>
</mxfile>